<svg width="20" height="20" viewBox="0 0 20 20" fill="none" xmlns="http://www.w3.org/2000/svg">
<path d="M20 1.77563C20 6.21313 16.6953 9.8811 12.4141 10.4475C12.1367 8.36157 11.2188 6.47876 9.86328 5.0061C11.3594 2.33423 14.2188 0.525635 17.5 0.525635H18.75C19.4414 0.525635 20 1.08423 20 1.77563ZM0 4.27563C0 3.58423 0.558594 3.02563 1.25 3.02563H2.5C7.33203 3.02563 11.25 6.9436 11.25 11.7756V13.0256V19.2756C11.25 19.967 10.6914 20.5256 10 20.5256C9.30859 20.5256 8.75 19.967 8.75 19.2756V13.0256C3.91797 13.0256 0 9.10767 0 4.27563Z" fill="black"/>
</svg>
