<svg width="20" height="20" viewBox="0 0 20 20" fill="none" xmlns="http://www.w3.org/2000/svg">
<path d="M16.7305 0.117169C17.1836 -0.132831 17.7539 0.0273254 18.0039 0.48045L18.1914 0.820294C18.9453 2.17576 18.9648 3.77733 18.3242 5.11717C19.3672 6.23436 20 7.73045 20 9.37498C20 10.0976 19.8789 10.7929 19.6523 11.4375C19.4141 12.1133 18.5391 12.0742 18.2148 11.4336L17.7578 10.5195C17.5977 10.2031 17.2734 9.99998 16.918 9.99998H14.0625C13.543 9.99998 13.125 9.58201 13.125 9.06248V5.93748C13.125 5.41795 12.707 4.99998 12.1875 4.99998H11.5195C10.6875 4.99998 10.3477 4.06639 11.0977 3.71483C11.9023 3.33592 12.8008 3.12498 13.75 3.12498C14.8555 3.12498 15.8906 3.41014 16.7891 3.91404C17.0039 3.20311 16.9336 2.41404 16.5547 1.73436L16.3672 1.39451C16.1172 0.941388 16.2773 0.371075 16.7305 0.121075V0.117169ZM6.6875 13.4961L10.3125 6.24998H11.875V9.37498C11.875 10.4101 12.7148 11.25 13.75 11.25H16.7266L17.6602 13.1172C14.543 17.3398 9.54297 20 4.03125 20H1.73438C0.777344 20 0 19.2226 0 18.2656C0 17.4531 0.566406 16.75 1.35938 16.5742L3.30469 16.1406C4.77344 15.8125 6.01953 14.8437 6.69141 13.4961H6.6875Z" fill="black"/>
</svg>
