<svg width="20" height="18" viewBox="0 0 20 18" fill="none" xmlns="http://www.w3.org/2000/svg">
<path d="M0 6.5C0 5.12109 1.12109 4 2.5 4C2.51953 4 2.54297 4 2.5625 4C2.85156 2.57422 4.11328 1.5 5.625 1.5C6.21094 1.5 6.75781 1.66016 7.22266 1.9375C7.74219 0.9375 8.79297 0.25 10 0.25C11.207 0.25 12.2578 0.9375 12.7773 1.9375C13.2422 1.66016 13.7891 1.5 14.375 1.5C15.8867 1.5 17.1484 2.57422 17.4375 4C17.457 4 17.4805 4 17.5 4C18.8789 4 20 5.12109 20 6.5C20 6.95703 19.8789 7.38281 19.6641 7.75H0.335938C0.121094 7.38281 0 6.95703 0 6.5ZM0 10.0703C0 9.48047 0.480469 9 1.07031 9H18.9258C19.5156 9 19.9961 9.48047 19.9961 10.0703C19.9961 12.8242 18.2617 15.1758 15.8281 16.0898L15.7617 16.6562C15.6836 17.2812 15.1523 17.75 14.5195 17.75H5.47656C4.84766 17.75 4.3125 17.2812 4.23438 16.6562L4.16406 16.0938C1.73437 15.1758 0 12.8242 0 10.0703Z" fill="black"/>
</svg>
