<svg width="20" height="20" viewBox="0 0 20 20" fill="none" xmlns="http://www.w3.org/2000/svg">
<path d="M6.62891 0.0351709C5.73828 -0.0273291 4.99219 0.582046 4.77344 1.39064L4.3125 3.12501C4.33203 3.12501 4.35547 3.12501 4.375 3.12501C11.2773 3.12501 16.875 8.72267 16.875 15.625C16.875 15.6445 16.875 15.668 16.875 15.6875L18.6094 15.2266C19.4219 15.0117 20.0273 14.2617 19.9648 13.3711C19.4727 6.23048 13.7695 0.527358 6.62891 0.0351709ZM15.6172 16.0235C15.6211 15.8906 15.625 15.7578 15.625 15.625C15.625 9.41017 10.5898 4.37501 4.375 4.37501C4.24219 4.37501 4.10938 4.37892 3.97656 4.38283L0.0195316 19.2149C-0.0390621 19.4297 0.0234379 19.6602 0.179688 19.8164C0.335938 19.9727 0.566407 20.0352 0.78125 19.9766L15.6172 16.0235ZM6.875 8.12501C7.20652 8.12501 7.52446 8.25671 7.75888 8.49113C7.9933 8.72555 8.125 9.04349 8.125 9.37501C8.125 9.70654 7.9933 10.0245 7.75888 10.2589C7.52446 10.4933 7.20652 10.625 6.875 10.625C6.54348 10.625 6.22554 10.4933 5.99112 10.2589C5.7567 10.0245 5.625 9.70654 5.625 9.37501C5.625 9.04349 5.7567 8.72555 5.99112 8.49113C6.22554 8.25671 6.54348 8.12501 6.875 8.12501ZM9.375 13.125C9.375 12.7935 9.5067 12.4756 9.74112 12.2411C9.97554 12.0067 10.2935 11.875 10.625 11.875C10.9565 11.875 11.2745 12.0067 11.5089 12.2411C11.7433 12.4756 11.875 12.7935 11.875 13.125C11.875 13.4565 11.7433 13.7745 11.5089 14.0089C11.2745 14.2433 10.9565 14.375 10.625 14.375C10.2935 14.375 9.97554 14.2433 9.74112 14.0089C9.5067 13.7745 9.375 13.4565 9.375 13.125ZM3.75 15C3.75 14.6685 3.8817 14.3506 4.11612 14.1161C4.35054 13.8817 4.66848 13.75 5 13.75C5.33152 13.75 5.64946 13.8817 5.88388 14.1161C6.1183 14.3506 6.25 14.6685 6.25 15C6.25 15.3315 6.1183 15.6495 5.88388 15.8839C5.64946 16.1183 5.33152 16.25 5 16.25C4.66848 16.25 4.35054 16.1183 4.11612 15.8839C3.8817 15.6495 3.75 15.3315 3.75 15Z" fill="black"/>
</svg>
